<?xml version="1.0" encoding="utf-8"?>
<!-- Generator: Adobe Illustrator 24.0.0, SVG Export Plug-In . SVG Version: 6.00 Build 0)  -->
<svg version="1.1" id="Layer_1" xmlns="http://www.w3.org/2000/svg" xmlns:xlink="http://www.w3.org/1999/xlink" x="0px" y="0px"
	 viewBox="0 0 1920 1080" style="enable-background:new 0 0 1920 1080;" xml:space="preserve">
<style type="text/css">
	.st0{fill:#EDEAEA;}
	.st1{fill:#1D1D1D;}
	.st2{fill:none;stroke:#000000;stroke-miterlimit:10;}
	.st3{fill:none;stroke:#777777;stroke-width:0.5;stroke-miterlimit:10;}
	.st4{fill:none;stroke:#FFFFFF;stroke-width:0.5;stroke-miterlimit:10;}
	.st5{fill:#444442;}
	.st6{fill:url(#SVGID_1_);}
	.st7{fill:url(#SVGID_2_);}
	.st8{fill:url(#SVGID_3_);}
	.st9{fill:url(#SVGID_4_);}
	.st10{fill:url(#SVGID_5_);}
	.st11{fill:url(#SVGID_6_);}
	.st12{fill:url(#SVGID_7_);}
	.st13{fill:url(#SVGID_8_);}
	.st14{fill:url(#SVGID_9_);}
	.st15{fill:url(#SVGID_10_);}
	.st16{fill:url(#SVGID_11_);}
	.st17{fill:url(#SVGID_12_);}
	.st18{fill:url(#SVGID_13_);}
	.st19{fill:url(#SVGID_14_);}
	.st20{fill:url(#SVGID_15_);}
	.st21{fill:url(#SVGID_16_);}
	.st22{fill:url(#SVGID_17_);}
	.st23{fill:url(#SVGID_18_);}
	.st24{fill:url(#SVGID_19_);}
	.st25{fill:url(#SVGID_20_);}
	.st26{fill:none;stroke:#1D1D1B;stroke-width:0.5;stroke-miterlimit:10;}
	.st27{fill:none;stroke:#777777;stroke-width:0.75;stroke-miterlimit:10;}
</style>
<g>
	<g>
		<polyline class="st3" points="1168.71,749.21 962.92,989.95 698.53,751.9 496.67,167.3 956.21,771.39 1207.15,246.98 
			1266.53,201.38 1335.49,219.62 1612.2,87.61 1510.51,555.09 1289,661.9 		"/>
		<polyline class="st4" points="1302.93,435.28 1283.77,737.19 956.21,771.39 698.53,751.9 		"/>
		<polyline class="st4" points="1207.15,246.98 1377.63,582.15 1335.49,219.62 		"/>
		<line class="st4" x1="1266.53" y1="201.38" x2="1377.63" y2="582.15"/>
		<polyline class="st4" points="1152,362.24 1034.75,132.98 893,281.18 496.67,167.3 		"/>
		<line class="st4" x1="893" y1="281.18" x2="1099.41" y2="472.14"/>
		<line class="st4" x1="956.21" y1="771.39" x2="962.92" y2="989.95"/>
		<path class="st5" d="M508.32,167.3c0,6.44-5.22,11.66-11.66,11.66c-6.44,0-11.66-5.22-11.66-11.66c0-6.44,5.22-11.66,11.66-11.66
			C503.11,155.64,508.32,160.86,508.32,167.3z"/>
		<path class="st5" d="M1040.42,132.98c0,5.13-4.16,9.29-9.29,9.29c-5.13,0-9.29-4.16-9.29-9.29c0-5.13,4.16-9.29,9.29-9.29
			C1036.26,123.69,1040.42,127.85,1040.42,132.98z"/>
		<path class="st5" d="M1383.25,586.57c0,3.1-2.52,5.62-5.62,5.62s-5.62-2.52-5.62-5.62c0-3.1,2.52-5.62,5.62-5.62
			S1383.25,583.46,1383.25,586.57z"/>
		<path class="st5" d="M1294.47,737.19c0,5.91-4.79,10.7-10.7,10.7c-5.91,0-10.7-4.79-10.7-10.7c0-5.91,4.79-10.7,10.7-10.7
			C1289.68,726.49,1294.47,731.28,1294.47,737.19z"/>
		<path class="st5" d="M969.99,989.95c0,5.76-4.67,10.43-10.43,10.43c-5.76,0-10.43-4.67-10.43-10.43s4.67-10.43,10.43-10.43
			C965.32,979.53,969.99,984.2,969.99,989.95z"/>
		<path class="st5" d="M704.06,751.9c0,3.05-2.47,5.52-5.52,5.52c-3.05,0-5.52-2.47-5.52-5.52c0-3.05,2.47-5.52,5.52-5.52
			C701.58,746.38,704.06,748.85,704.06,751.9z"/>
		<path class="st5" d="M902.17,281.18c0,5.06-4.11,9.17-9.17,9.17s-9.17-4.11-9.17-9.17c0-5.06,4.11-9.17,9.17-9.17
			S902.17,276.12,902.17,281.18z"/>
		<path class="st5" d="M1215.27,246.98c0,4.49-3.64,8.13-8.13,8.13c-4.49,0-8.13-3.64-8.13-8.13c0-4.49,3.64-8.13,8.13-8.13
			C1211.64,238.86,1215.27,242.5,1215.27,246.98z"/>
		<path class="st5" d="M1271.56,201.38c0,2.78-2.25,5.03-5.03,5.03s-5.03-2.25-5.03-5.03c0-2.78,2.25-5.03,5.03-5.03
			S1271.56,198.61,1271.56,201.38z"/>
		<path class="st5" d="M1342.84,219.62c0,4.06-3.29,7.35-7.35,7.35c-4.06,0-7.35-3.29-7.35-7.35s3.29-7.35,7.35-7.35
			C1339.55,212.28,1342.84,215.57,1342.84,219.62z"/>
		<path class="st5" d="M1620,87.61c0,4.31-3.49,7.8-7.8,7.8c-4.31,0-7.8-3.49-7.8-7.8c0-4.31,3.49-7.8,7.8-7.8
			C1616.51,79.81,1620,83.3,1620,87.61z"/>
		<path class="st5" d="M1521.66,555.09c0,6.16-5,11.16-11.16,11.16c-6.16,0-11.16-5-11.16-11.16c0-6.16,5-11.16,11.16-11.16
			C1516.67,543.93,1521.66,548.93,1521.66,555.09z"/>
	</g>
	<g>
		<linearGradient id="SVGID_1_" gradientUnits="userSpaceOnUse" x1="924.136" y1="381.4676" x2="762.6376" y2="685.2018">
			<stop  offset="0" style="stop-color:#FFFFFF"/>
			<stop  offset="0.1157" style="stop-color:#FAFAFA"/>
			<stop  offset="0.2579" style="stop-color:#EBEBEB"/>
			<stop  offset="0.4141" style="stop-color:#D2D2D2"/>
			<stop  offset="0.5803" style="stop-color:#B0B0AF"/>
			<stop  offset="0.7543" style="stop-color:#838382"/>
			<stop  offset="0.9324" style="stop-color:#4E4E4C"/>
			<stop  offset="0.9634" style="stop-color:#444442"/>
			<stop  offset="0.9785" style="stop-color:#212120"/>
			<stop  offset="0.9918" style="stop-color:#090909"/>
			<stop  offset="1" style="stop-color:#000000"/>
		</linearGradient>
		<polygon class="st6" points="923.01,389.39 897.95,588.28 755.4,541.26 779.73,519.2 811.33,490.58 		"/>
		<linearGradient id="SVGID_2_" gradientUnits="userSpaceOnUse" x1="1249.9966" y1="481.9171" x2="1498.5016" y2="300.8257">
			<stop  offset="0" style="stop-color:#FFFFFF"/>
			<stop  offset="0.1091" style="stop-color:#FBFBFB"/>
			<stop  offset="0.2213" style="stop-color:#EFEFEF"/>
			<stop  offset="0.3349" style="stop-color:#DADADA"/>
			<stop  offset="0.4495" style="stop-color:#BDBDBD"/>
			<stop  offset="0.5649" style="stop-color:#989898"/>
			<stop  offset="0.681" style="stop-color:#6A6A6A"/>
			<stop  offset="0.7954" style="stop-color:#353535"/>
			<stop  offset="0.897" style="stop-color:#000000"/>
		</linearGradient>
		<polygon class="st7" points="1284.16,295.86 1438.81,541.26 1220.6,475.34 1172.11,460.69 1185.8,424.84 1185.93,424.54 
			1235.08,295.86 		"/>
		<linearGradient id="SVGID_3_" gradientUnits="userSpaceOnUse" x1="1456.2201" y1="532.7067" x2="1200.9666" y2="483.5221">
			<stop  offset="0" style="stop-color:#FFFFFF"/>
			<stop  offset="0.0816" style="stop-color:#C4C4C4"/>
			<stop  offset="0.1805" style="stop-color:#838382"/>
			<stop  offset="0.2271" style="stop-color:#696968"/>
			<stop  offset="0.3674" style="stop-color:#626261"/>
			<stop  offset="0.5457" style="stop-color:#525251"/>
			<stop  offset="0.7387" style="stop-color:#313131"/>
			<stop  offset="0.9938" style="stop-color:#000000"/>
		</linearGradient>
		<polygon class="st8" points="1438.81,541.26 1260.75,506.99 1209.56,497.14 1220.6,475.34 		"/>
		<linearGradient id="SVGID_4_" gradientUnits="userSpaceOnUse" x1="1217.7933" y1="492.945" x2="1308.239" y2="788.3792">
			<stop  offset="0" style="stop-color:#FFFFFF"/>
			<stop  offset="0.1091" style="stop-color:#FBFBFB"/>
			<stop  offset="0.2213" style="stop-color:#EFEFEF"/>
			<stop  offset="0.3349" style="stop-color:#DADADA"/>
			<stop  offset="0.4495" style="stop-color:#BDBDBD"/>
			<stop  offset="0.5649" style="stop-color:#989898"/>
			<stop  offset="0.681" style="stop-color:#6A6A6A"/>
			<stop  offset="0.7954" style="stop-color:#353535"/>
			<stop  offset="0.897" style="stop-color:#000000"/>
		</linearGradient>
		<polygon class="st9" points="1136.9,640.64 1094.68,652.71 1141.4,535.85 1187.67,540.37 1411.03,562.2 		"/>
		<linearGradient id="SVGID_5_" gradientUnits="userSpaceOnUse" x1="1422.7716" y1="575.0667" x2="1163.4851" y2="525.105">
			<stop  offset="0" style="stop-color:#FFFFFF"/>
			<stop  offset="0.0816" style="stop-color:#C4C4C4"/>
			<stop  offset="0.1805" style="stop-color:#838382"/>
			<stop  offset="0.2271" style="stop-color:#696968"/>
			<stop  offset="0.3674" style="stop-color:#626261"/>
			<stop  offset="0.5457" style="stop-color:#525251"/>
			<stop  offset="0.7387" style="stop-color:#313131"/>
			<stop  offset="0.9938" style="stop-color:#000000"/>
		</linearGradient>
		<polygon class="st10" points="1411.03,562.2 1187.67,540.37 1195.76,524.38 1241.25,532.38 		"/>
		<linearGradient id="SVGID_6_" gradientUnits="userSpaceOnUse" x1="1319.946" y1="531.4426" x2="1125.5616" y2="497.1674">
			<stop  offset="0" style="stop-color:#FFFFFF"/>
			<stop  offset="0.0819" style="stop-color:#DBDBDB"/>
			<stop  offset="0.2681" style="stop-color:#8E8E8E"/>
			<stop  offset="0.4344" style="stop-color:#515151"/>
			<stop  offset="0.5745" style="stop-color:#252525"/>
			<stop  offset="0.683" style="stop-color:#0A0A0A"/>
			<stop  offset="0.7466" style="stop-color:#000000"/>
		</linearGradient>
		<polygon class="st11" points="1260.75,506.99 1241.25,532.38 1195.76,524.38 1209.56,497.14 		"/>
		<linearGradient id="SVGID_7_" gradientUnits="userSpaceOnUse" x1="1314.975" y1="270.0898" x2="880.7339" y2="890.2504">
			<stop  offset="0" style="stop-color:#FFFFFF"/>
			<stop  offset="0.1762" style="stop-color:#C9C9C9"/>
			<stop  offset="0.4286" style="stop-color:#828281"/>
			<stop  offset="0.6102" style="stop-color:#555553"/>
			<stop  offset="0.7015" style="stop-color:#444442"/>
			<stop  offset="0.8243" style="stop-color:#212120"/>
			<stop  offset="0.9331" style="stop-color:#090909"/>
			<stop  offset="1" style="stop-color:#000000"/>
		</linearGradient>
		<polygon class="st12" points="1055.37,534.63 1099.99,475.34 1100.01,475.34 1235.08,295.86 1185.93,424.54 1185.8,424.84 
			1141.4,535.85 1094.68,652.71 1062.23,733.87 1056.36,748.52 1020.07,748.52 1041.54,599.6 1026.52,572.96 		"/>
		<linearGradient id="SVGID_8_" gradientUnits="userSpaceOnUse" x1="1222.4681" y1="408.5042" x2="1123.3186" y2="622.4429">
			<stop  offset="0" style="stop-color:#FFFFFF"/>
			<stop  offset="0.1213" style="stop-color:#C4C4C4"/>
			<stop  offset="0.2683" style="stop-color:#838382"/>
			<stop  offset="0.3375" style="stop-color:#696968"/>
			<stop  offset="0.4148" style="stop-color:#626261"/>
			<stop  offset="0.5129" style="stop-color:#525251"/>
			<stop  offset="0.7201" style="stop-color:#313131"/>
			<stop  offset="0.9938" style="stop-color:#000000"/>
		</linearGradient>
		<polygon class="st13" points="1220.6,475.34 1209.56,497.14 1195.76,524.38 1187.67,540.37 1141.4,535.85 1185.8,424.84 
			1172.11,460.69 		"/>
		<linearGradient id="SVGID_9_" gradientUnits="userSpaceOnUse" x1="1037.5706" y1="830.9466" x2="1135.8514" y2="599.4113">
			<stop  offset="0" style="stop-color:#FFFFFF"/>
			<stop  offset="1" style="stop-color:#1D1D1B"/>
		</linearGradient>
		<polygon class="st14" points="1136.9,640.64 1089.69,733.87 1062.23,733.87 1094.68,652.71 		"/>
		<linearGradient id="SVGID_10_" gradientUnits="userSpaceOnUse" x1="1068.9691" y1="605.6866" x2="1052.8539" y2="431.5001">
			<stop  offset="0" style="stop-color:#FFFFFF"/>
			<stop  offset="0.0889" style="stop-color:#DBDBDB"/>
			<stop  offset="0.2911" style="stop-color:#8E8E8E"/>
			<stop  offset="0.4716" style="stop-color:#515151"/>
			<stop  offset="0.6237" style="stop-color:#252525"/>
			<stop  offset="0.7414" style="stop-color:#0A0A0A"/>
			<stop  offset="0.8105" style="stop-color:#000000"/>
		</linearGradient>
		<polygon class="st15" points="1099.99,475.34 1055.37,534.63 1015.24,490.58 		"/>
		<linearGradient id="SVGID_11_" gradientUnits="userSpaceOnUse" x1="809.0318" y1="242.9028" x2="1127.3197" y2="669.5814">
			<stop  offset="0" style="stop-color:#FFFFFF"/>
			<stop  offset="0.1815" style="stop-color:#C4C4C4"/>
			<stop  offset="0.4016" style="stop-color:#838382"/>
			<stop  offset="0.5053" style="stop-color:#696968"/>
			<stop  offset="0.6339" style="stop-color:#454544"/>
			<stop  offset="0.7894" style="stop-color:#1F1F1F"/>
			<stop  offset="0.9149" style="stop-color:#080808"/>
			<stop  offset="0.9938" style="stop-color:#000000"/>
		</linearGradient>
		<polygon class="st16" points="1015.24,490.58 1055.37,534.63 1026.52,572.96 923.01,389.39 		"/>
		<linearGradient id="SVGID_12_" gradientUnits="userSpaceOnUse" x1="923.1145" y1="391.9579" x2="1007.2239" y2="756.2756">
			<stop  offset="0" style="stop-color:#FFFFFF"/>
			<stop  offset="0.1541" style="stop-color:#FBFBFB"/>
			<stop  offset="0.2951" style="stop-color:#F0F0F0"/>
			<stop  offset="0.431" style="stop-color:#DEDEDE"/>
			<stop  offset="0.5638" style="stop-color:#C4C4C4"/>
			<stop  offset="0.6942" style="stop-color:#A3A3A2"/>
			<stop  offset="0.823" style="stop-color:#7A7A78"/>
			<stop  offset="0.9482" style="stop-color:#4A4A48"/>
			<stop  offset="0.9634" style="stop-color:#444442"/>
			<stop  offset="0.9785" style="stop-color:#212120"/>
			<stop  offset="0.9918" style="stop-color:#090909"/>
			<stop  offset="1" style="stop-color:#000000"/>
		</linearGradient>
		<polygon class="st17" points="1026.52,572.96 1041.54,599.6 897.95,588.28 923.01,389.39 		"/>
		<linearGradient id="SVGID_13_" gradientUnits="userSpaceOnUse" x1="888.5573" y1="563.6368" x2="271.1721" y2="905.8589">
			<stop  offset="0" style="stop-color:#FFFFFF"/>
			<stop  offset="0.1128" style="stop-color:#FBFBFB"/>
			<stop  offset="0.2313" style="stop-color:#EEEEEE"/>
			<stop  offset="0.3524" style="stop-color:#DADAD9"/>
			<stop  offset="0.4753" style="stop-color:#BCBCBC"/>
			<stop  offset="0.5996" style="stop-color:#979796"/>
			<stop  offset="0.7234" style="stop-color:#6A6A68"/>
			<stop  offset="0.8133" style="stop-color:#444442"/>
			<stop  offset="0.8901" style="stop-color:#212120"/>
			<stop  offset="0.9582" style="stop-color:#090909"/>
			<stop  offset="1" style="stop-color:#000000"/>
		</linearGradient>
		<polygon class="st18" points="1041.54,599.6 905.88,629.64 762.06,661.49 489.63,721.83 652.61,573.67 688.95,562.2 
			712.43,554.81 755.4,541.26 897.95,588.28 		"/>
		<linearGradient id="SVGID_14_" gradientUnits="userSpaceOnUse" x1="914.2856" y1="772.218" x2="956.913" y2="701.2742">
			<stop  offset="0" style="stop-color:#FFFFFF"/>
			<stop  offset="0.0304" style="stop-color:#F4F4F4"/>
			<stop  offset="0.2082" style="stop-color:#B6B6B5"/>
			<stop  offset="0.3706" style="stop-color:#858583"/>
			<stop  offset="0.5121" style="stop-color:#616160"/>
			<stop  offset="0.6271" style="stop-color:#4C4C4A"/>
			<stop  offset="0.7015" style="stop-color:#444442"/>
			<stop  offset="0.8243" style="stop-color:#212120"/>
			<stop  offset="0.9331" style="stop-color:#090909"/>
			<stop  offset="1" style="stop-color:#000000"/>
		</linearGradient>
		<polygon class="st19" points="912.82,712.57 965.83,748.52 928.8,748.52 		"/>
		<linearGradient id="SVGID_15_" gradientUnits="userSpaceOnUse" x1="949.7543" y1="762.5269" x2="855.07" y2="701.0382">
			<stop  offset="0" style="stop-color:#FFFFFF"/>
			<stop  offset="0.0304" style="stop-color:#F4F4F4"/>
			<stop  offset="0.2082" style="stop-color:#B6B6B5"/>
			<stop  offset="0.3706" style="stop-color:#858583"/>
			<stop  offset="0.5121" style="stop-color:#616160"/>
			<stop  offset="0.6271" style="stop-color:#4C4C4A"/>
			<stop  offset="0.7015" style="stop-color:#444442"/>
			<stop  offset="0.8243" style="stop-color:#212120"/>
			<stop  offset="0.9331" style="stop-color:#090909"/>
			<stop  offset="1" style="stop-color:#000000"/>
		</linearGradient>
		<polygon class="st20" points="912.82,712.57 928.8,748.52 854.8,726.83 		"/>
		<linearGradient id="SVGID_16_" gradientUnits="userSpaceOnUse" x1="862.1853" y1="790.7147" x2="814.384" y2="544.7984">
			<stop  offset="0" style="stop-color:#FFFFFF"/>
			<stop  offset="0.1762" style="stop-color:#C9C9C9"/>
			<stop  offset="0.4286" style="stop-color:#828281"/>
			<stop  offset="0.6102" style="stop-color:#555553"/>
			<stop  offset="0.7015" style="stop-color:#444442"/>
			<stop  offset="0.8243" style="stop-color:#212120"/>
			<stop  offset="0.9331" style="stop-color:#090909"/>
			<stop  offset="1" style="stop-color:#000000"/>
		</linearGradient>
		<polygon class="st21" points="905.88,629.64 912.82,712.57 854.8,726.83 803.55,739.43 762.1,661.62 762.06,661.49 		"/>
		<linearGradient id="SVGID_17_" gradientUnits="userSpaceOnUse" x1="547.3338" y1="198.3921" x2="857.6269" y2="581.5722">
			<stop  offset="0" style="stop-color:#FFFFFF"/>
			<stop  offset="0.0426" style="stop-color:#F2F2F2"/>
			<stop  offset="0.1874" style="stop-color:#CACACA"/>
			<stop  offset="0.3368" style="stop-color:#AAA9A9"/>
			<stop  offset="0.4897" style="stop-color:#908F8F"/>
			<stop  offset="0.6476" style="stop-color:#7E7D7D"/>
			<stop  offset="0.8133" style="stop-color:#737373"/>
			<stop  offset="1" style="stop-color:#706F6F"/>
		</linearGradient>
		<polygon class="st22" points="558.15,216.22 811.33,490.58 779.73,519.2 		"/>
		<linearGradient id="SVGID_18_" gradientUnits="userSpaceOnUse" x1="543.306" y1="185.7885" x2="855.5236" y2="726.5654">
			<stop  offset="0" style="stop-color:#FFFFFF"/>
			<stop  offset="0.1128" style="stop-color:#FBFBFB"/>
			<stop  offset="0.2313" style="stop-color:#EEEEEE"/>
			<stop  offset="0.3524" style="stop-color:#DADAD9"/>
			<stop  offset="0.4753" style="stop-color:#BCBCBC"/>
			<stop  offset="0.5996" style="stop-color:#979796"/>
			<stop  offset="0.7234" style="stop-color:#6A6A68"/>
			<stop  offset="0.8133" style="stop-color:#444442"/>
			<stop  offset="0.8901" style="stop-color:#212120"/>
			<stop  offset="0.9582" style="stop-color:#090909"/>
			<stop  offset="1" style="stop-color:#000000"/>
		</linearGradient>
		<polygon class="st23" points="558.15,216.22 779.73,519.2 755.4,541.26 712.43,554.81 		"/>
		<linearGradient id="SVGID_19_" gradientUnits="userSpaceOnUse" x1="555.816" y1="217.2122" x2="747.8649" y2="669.6512">
			<stop  offset="0" style="stop-color:#FFFFFF"/>
			<stop  offset="0.0344" style="stop-color:#DEDEDD"/>
			<stop  offset="0.079" style="stop-color:#BABAB9"/>
			<stop  offset="0.1292" style="stop-color:#9A9A99"/>
			<stop  offset="0.1847" style="stop-color:#7F7F7D"/>
			<stop  offset="0.2474" style="stop-color:#696967"/>
			<stop  offset="0.3206" style="stop-color:#585856"/>
			<stop  offset="0.4112" style="stop-color:#4D4D4B"/>
			<stop  offset="0.5381" style="stop-color:#464644"/>
			<stop  offset="0.8905" style="stop-color:#444442"/>
			<stop  offset="0.9356" style="stop-color:#212120"/>
			<stop  offset="0.9755" style="stop-color:#090909"/>
			<stop  offset="1" style="stop-color:#000000"/>
		</linearGradient>
		<polygon class="st24" points="558.15,216.22 712.43,554.81 688.95,562.2 		"/>
		<linearGradient id="SVGID_20_" gradientUnits="userSpaceOnUse" x1="970.2515" y1="812.6606" x2="975.0538" y2="537.5359">
			<stop  offset="0" style="stop-color:#FFFFFF"/>
			<stop  offset="0.0925" style="stop-color:#F5F5F5"/>
			<stop  offset="0.2484" style="stop-color:#DBDBDB"/>
			<stop  offset="0.4486" style="stop-color:#B1B1B0"/>
			<stop  offset="0.6853" style="stop-color:#767675"/>
			<stop  offset="0.95" style="stop-color:#2C2C2A"/>
			<stop  offset="1" style="stop-color:#1D1D1B"/>
		</linearGradient>
		<polygon class="st25" points="905.88,629.64 912.82,712.57 1017.93,784.34 1041.54,599.6 		"/>
	</g>
	<g>
		<polyline class="st26" points="750.41,749.21 956.21,989.95 1220.6,751.9 1422.46,167.3 962.92,771.39 711.98,246.98 
			652.6,201.38 583.64,219.62 306.93,87.61 408.62,555.09 630.13,661.9 		"/>
		<polyline class="st26" points="616.2,435.28 635.36,737.19 962.92,771.39 1220.6,751.9 		"/>
		<polyline class="st26" points="711.98,246.98 541.5,582.15 583.64,219.62 		"/>
		<line class="st26" x1="652.6" y1="201.38" x2="541.5" y2="582.15"/>
		<polyline class="st26" points="767.13,362.24 884.38,132.98 1026.13,281.18 1422.46,167.3 		"/>
		<line class="st26" x1="1026.13" y1="281.18" x2="819.72" y2="472.14"/>
		<line class="st26" x1="962.92" y1="771.39" x2="956.21" y2="989.95"/>
		<path class="st5" d="M1410.8,167.3c0,6.44,5.22,11.66,11.66,11.66s11.66-5.22,11.66-11.66c0-6.44-5.22-11.66-11.66-11.66
			S1410.8,160.86,1410.8,167.3z"/>
		<path class="st5" d="M878.71,132.98c0,5.13,4.16,9.29,9.29,9.29c5.13,0,9.29-4.16,9.29-9.29c0-5.13-4.16-9.29-9.29-9.29
			C882.87,123.69,878.71,127.85,878.71,132.98z"/>
		<path class="st5" d="M535.88,586.57c0,3.1,2.52,5.62,5.62,5.62c3.1,0,5.62-2.52,5.62-5.62c0-3.1-2.52-5.62-5.62-5.62
			C538.39,580.95,535.88,583.46,535.88,586.57z"/>
		<path class="st5" d="M624.66,737.19c0,5.91,4.79,10.7,10.7,10.7c5.91,0,10.7-4.79,10.7-10.7c0-5.91-4.79-10.7-10.7-10.7
			C629.45,726.49,624.66,731.28,624.66,737.19z"/>
		<path class="st5" d="M1215.07,751.9c0,3.05,2.47,5.52,5.52,5.52c3.05,0,5.52-2.47,5.52-5.52c0-3.05-2.47-5.52-5.52-5.52
			C1217.55,746.38,1215.07,748.85,1215.07,751.9z"/>
		<path class="st5" d="M952.7,771.39c0,5.64,4.57,10.21,10.21,10.21c5.64,0,10.21-4.57,10.21-10.21c0-5.64-4.57-10.21-10.21-10.21
			C957.28,761.18,952.7,765.75,952.7,771.39z"/>
		<path class="st5" d="M1016.96,281.18c0,5.06,4.11,9.17,9.17,9.17c5.06,0,9.17-4.11,9.17-9.17c0-5.06-4.11-9.17-9.17-9.17
			C1021.07,272.01,1016.96,276.12,1016.96,281.18z"/>
		<path class="st5" d="M703.85,246.98c0,4.49,3.64,8.13,8.13,8.13c4.49,0,8.13-3.64,8.13-8.13c0-4.49-3.64-8.13-8.13-8.13
			C707.49,238.86,703.85,242.5,703.85,246.98z"/>
		<path class="st5" d="M647.57,201.38c0,2.78,2.25,5.03,5.03,5.03s5.03-2.25,5.03-5.03c0-2.78-2.25-5.03-5.03-5.03
			S647.57,198.61,647.57,201.38z"/>
		<path class="st5" d="M576.29,219.62c0,4.06,3.29,7.35,7.35,7.35c4.06,0,7.35-3.29,7.35-7.35s-3.29-7.35-7.35-7.35
			C579.58,212.28,576.29,215.57,576.29,219.62z"/>
		<path class="st5" d="M299.13,87.61c0,4.31,3.49,7.8,7.8,7.8c4.31,0,7.8-3.49,7.8-7.8c0-4.31-3.49-7.8-7.8-7.8
			C302.62,79.81,299.13,83.3,299.13,87.61z"/>
		<path class="st5" d="M397.47,555.09c0,6.16,5,11.16,11.16,11.16c6.16,0,11.16-5,11.16-11.16c0-6.16-5-11.16-11.16-11.16
			C402.46,543.93,397.47,548.93,397.47,555.09z"/>
	</g>
</g>
</svg>
